<svg width="35" height="31" viewBox="0 0 35 31" fill="none" xmlns="http://www.w3.org/2000/svg">
<g clip-path="url(#clip0_5984_1637)">
<path d="M19.8892 15.8149L10.7415 10.8926L1.59375 15.8149V25.6595L10.7415 30.5818L19.8892 25.6595V15.8149Z" stroke="#12273B" stroke-width="2" stroke-linejoin="round"/>
<path d="M1.59375 15.8147L10.7415 20.737M10.7415 20.737V30.5816M10.7415 20.737L19.8892 15.8147M15.3153 13.3535L6.16761 18.2758" stroke="#12273B" stroke-width="2" stroke-linecap="round" stroke-linejoin="round"/>
</g>
<path d="M26.0666 6.81583L21.1394 3.86686L15.7722 5.78327L15.3324 10.6486L20.2596 13.5976L25.6267 11.6812L26.0666 6.81583Z" stroke="#12273B" stroke-width="2" stroke-linejoin="round"/>
<path d="M15.7728 5.78275L20.7001 8.73172M20.7001 8.73172L20.2602 13.5971M20.7001 8.73172L26.0672 6.81531M23.6036 5.34082L18.2365 7.25723" stroke="#12273B" stroke-width="2" stroke-linecap="round" stroke-linejoin="round"/>
<defs>
<clipPath id="clip0_5984_1637">
<rect width="22.2727" height="27.6486" fill="white" transform="translate(0 3.35156)"/>
</clipPath>
</defs>
</svg>
