<svg width="39" height="37" viewBox="0 0 39 37" fill="none" xmlns="http://www.w3.org/2000/svg">
<g id="ic:outline-explore">
<g id="Group">
<path id="Vector" d="M28.9535 27.724L29.56 27.9966L29.278 27.4098C31.5811 25.1021 33.0023 21.9618 33.0023 18.5003C33.0023 11.4097 27.0389 5.66699 19.7478 5.66699C16.1804 5.66699 12.9308 7.0418 10.5421 9.27662L9.93554 9.00406L10.2175 9.59086C7.91449 11.8986 6.49331 15.0388 6.49331 18.5003C6.49331 25.5909 12.4567 31.3337 19.7478 31.3337C23.3152 31.3337 26.5648 29.9589 28.9535 27.724ZM16.9148 21.2179L12.0226 11.0383L22.5808 15.7828L27.4729 25.9624L16.9148 21.2179ZM19.7478 33.417C11.2074 33.417 4.30469 26.7185 4.30469 18.5003C4.30469 10.2822 11.2074 3.58366 19.7478 3.58366C28.2882 3.58366 35.1909 10.2822 35.1909 18.5003C35.1909 26.7185 28.2882 33.417 19.7478 33.417ZM19.7478 16.3045C18.5151 16.3045 17.494 17.2681 17.494 18.5003C17.494 19.7326 18.5151 20.6962 19.7478 20.6962C20.9805 20.6962 22.0015 19.7326 22.0015 18.5003C22.0015 17.2681 20.9805 16.3045 19.7478 16.3045Z" fill="#0B2136" fill-opacity="0.97" stroke="white"/>
</g>
</g>
</svg>
