<svg width="33" height="38" viewBox="0 0 33 38" fill="none" xmlns="http://www.w3.org/2000/svg">
<g id="fluent:broad-activity-feed-20-regular" filter="url(#filter0_d_6379_1908)">
<g id="Group">
<g id="Group_2">
<path id="Vector" d="M5.02181 8.41521C5.02846 7.74021 5.27032 7.09607 5.6942 6.6245C6.11807 6.15293 6.68923 5.89255 7.28203 5.90064L26.6534 6.16521C27.2462 6.17331 27.8121 6.44922 28.2265 6.93224C28.641 7.41526 28.8701 8.06583 28.8635 8.74083L28.7966 15.5277C28.79 16.2027 28.5481 16.8469 28.1243 17.3184C27.7004 17.79 27.1292 18.0504 26.5364 18.0423L7.16508 17.7777C6.57228 17.7696 6.0064 17.4937 5.59193 17.0107C5.17746 16.5277 4.94834 15.8771 4.95499 15.2021L5.02181 8.41521ZM7.26532 7.59737C7.06772 7.59467 6.87734 7.68146 6.73605 7.83865C6.59475 7.99585 6.51413 8.21056 6.51192 8.43556L6.44509 15.2225C6.44287 15.4475 6.51925 15.6643 6.6574 15.8253C6.79556 15.9863 6.98419 16.0783 7.18179 16.081L26.5531 16.3456C26.7507 16.3483 26.9411 16.2615 27.0824 16.1043C27.2237 15.9471 27.3043 15.7324 27.3065 15.5074L27.3734 8.72048C27.3756 8.49548 27.2992 8.27862 27.1611 8.11761C27.0229 7.95661 26.8343 7.86464 26.6367 7.86194L7.26532 7.59737ZM4.87145 23.6857C4.8781 23.0107 5.11996 22.3666 5.54383 21.895C5.96771 21.4235 6.53887 21.1631 7.13167 21.1712L13.0921 21.2526C13.6849 21.2607 14.2508 21.5366 14.6652 22.0196C15.0797 22.5026 15.3088 23.1532 15.3022 23.8282L15.2688 27.2217C15.2621 27.8966 15.0203 28.5408 14.5964 29.0124C14.1725 29.4839 13.6013 29.7443 13.0085 29.7362L7.04813 29.6548C6.45533 29.6467 5.88945 29.3708 5.47498 28.8878C5.06051 28.4048 4.83139 27.7542 4.83804 27.0792L4.87145 23.6857ZM7.11496 22.8679C6.91736 22.8652 6.72697 22.952 6.58568 23.1092C6.44439 23.2664 6.36377 23.4811 6.36156 23.7061L6.32814 27.0995C6.32593 27.3245 6.4023 27.5414 6.54046 27.7024C6.67861 27.8634 6.86724 27.9554 7.06484 27.9581L13.0253 28.0395C13.2229 28.0422 13.4132 27.9554 13.5545 27.7982C13.6958 27.641 13.7764 27.4263 13.7787 27.2013L13.8121 23.8078C13.8143 23.5828 13.7379 23.366 13.5998 23.205C13.4616 23.044 13.273 22.952 13.0754 22.9493L7.11496 22.8679ZM20.5426 21.3543C19.9498 21.3462 19.3786 21.6066 18.9548 22.0782C18.5309 22.5498 18.289 23.1939 18.2824 23.8689L18.249 27.2624C18.2423 27.9374 18.4714 28.5879 18.8859 29.0709C19.3004 29.554 19.8663 29.8299 20.4591 29.838L26.4195 29.9194C27.0123 29.9275 27.5834 29.6671 28.0073 29.1955C28.4312 28.7239 28.673 28.0798 28.6797 27.4048L28.7131 24.0114C28.7198 23.3364 28.4906 22.6858 28.0762 22.2028C27.6617 21.7197 27.0958 21.4438 26.503 21.4357L20.5426 21.3543ZM19.7725 23.8893C19.7747 23.6643 19.8553 23.4495 19.9966 23.2923C20.1379 23.1352 20.3283 23.0484 20.5259 23.0511L26.4863 23.1325C26.6839 23.1352 26.8725 23.2271 27.0107 23.3881C27.1488 23.5492 27.2252 23.766 27.223 23.991L27.1896 27.3845C27.1874 27.6095 27.1068 27.8242 26.9655 27.9814C26.8242 28.1386 26.6338 28.2253 26.4362 28.2226L20.4758 28.1412C20.2782 28.1385 20.0895 28.0466 19.9514 27.8856C19.8132 27.7246 19.7369 27.5077 19.7391 27.2827L19.7725 23.8893Z" fill="#0B2136" fill-opacity="0.97"/>
</g>
</g>
</g>
<defs>
<filter id="filter0_d_6379_1908" x="-2.21094" y="0.739258" width="38.1328" height="42.3418" filterUnits="userSpaceOnUse" color-interpolation-filters="sRGB">
<feFlood flood-opacity="0" result="BackgroundImageFix"/>
<feColorMatrix in="SourceAlpha" type="matrix" values="0 0 0 0 0 0 0 0 0 0 0 0 0 0 0 0 0 0 127 0" result="hardAlpha"/>
<feOffset dy="4"/>
<feGaussianBlur stdDeviation="2"/>
<feComposite in2="hardAlpha" operator="out"/>
<feColorMatrix type="matrix" values="0 0 0 0 0 0 0 0 0 0 0 0 0 0 0 0 0 0 0.25 0"/>
<feBlend mode="normal" in2="BackgroundImageFix" result="effect1_dropShadow_6379_1908"/>
<feBlend mode="normal" in="SourceGraphic" in2="effect1_dropShadow_6379_1908" result="shape"/>
</filter>
</defs>
</svg>
