<svg width="25" height="19" viewBox="0 0 25 19" fill="none" xmlns="http://www.w3.org/2000/svg">
<path d="M12.4974 4.29167V0.125H0.414062V18.875H24.5807V4.29167H12.4974ZM5.2474 16.7917H2.83073V14.7083H5.2474V16.7917ZM5.2474 12.625H2.83073V10.5417H5.2474V12.625ZM5.2474 8.45833H2.83073V6.375H5.2474V8.45833ZM5.2474 4.29167H2.83073V2.20833H5.2474V4.29167ZM10.0807 16.7917H7.66406V14.7083H10.0807V16.7917ZM10.0807 12.625H7.66406V10.5417H10.0807V12.625ZM10.0807 8.45833H7.66406V6.375H10.0807V8.45833ZM10.0807 4.29167H7.66406V2.20833H10.0807V4.29167ZM22.1641 16.7917H12.4974V14.7083H14.9141V12.625H12.4974V10.5417H14.9141V8.45833H12.4974V6.375H22.1641V16.7917ZM19.7474 8.45833H17.3307V10.5417H19.7474V8.45833ZM19.7474 12.625H17.3307V14.7083H19.7474V12.625Z" fill="#12273B"/>
</svg>
