<svg width="25" height="28" viewBox="0 0 25 28" fill="none" xmlns="http://www.w3.org/2000/svg">
<path id="Vector" d="M20.5128 14C21.4103 14 22.2692 14.2022 23.0769 14.5444V12.4444L21.7949 4.66667H1.28205L0 12.4444V15.5556H1.28205V24.8889H12.9359C12.8718 24.3756 12.8205 23.8622 12.8205 23.3333C12.8205 21.42 13.2949 19.6622 14.1026 18.1844V15.5556H16.2692C17.4872 14.5756 18.9359 14 20.5128 14ZM11.5385 21.7778H3.84615V15.5556H11.5385V21.7778ZM2.61538 12.4444L3.38462 7.77778H19.6923L20.4615 12.4444H2.61538ZM21.7949 3.11111H1.28205V0H21.7949V3.11111ZM25 20.6111L18.9103 28L15.3846 23.3333L16.8718 21.5289L18.9103 24.0022L23.5128 18.4178L25 20.6111Z" fill="#f21212"/>
</svg>