<?xml version="1.0" standalone="no"?>
<!DOCTYPE svg PUBLIC "-//W3C//DTD SVG 20010904//EN"
 "http://www.w3.org/TR/2001/REC-SVG-20010904/DTD/svg10.dtd">
<svg version="1.0" xmlns="http://www.w3.org/2000/svg"
 width="4724.000000pt" height="2982.000000pt" viewBox="0 0 4724.000000 2982.000000"
 preserveAspectRatio="xMidYMid meet">
<metadata>
Created by potrace 1.16, written by Peter Selinger 2001-2019
</metadata>
<g transform="translate(0.000000,2982.000000) scale(0.100000,-0.100000)"
fill="#000000" stroke="none">
<path style="fill:#ff0000;" d="M7450 22235 c-175 -26 -330 -58 -490 -99 -165 -44 -377 -108 -415
-126 -11 -5 -47 -19 -80 -31 -378 -135 -931 -465 -1255 -748 -392 -342 -685
-692 -933 -1114 -90 -152 -242 -457 -262 -527 -4 -14 -16 -43 -26 -65 -103
-223 -228 -733 -269 -1090 -28 -253 -28 -692 0 -935 33 -280 130 -731 184
-855 8 -16 21 -55 31 -85 95 -305 341 -777 573 -1095 191 -263 471 -564 712
-766 194 -163 449 -343 636 -449 219 -124 668 -330 720 -330 19 0 18 -3 -15
-52 -26 -39 -279 -439 -359 -568 -18 -30 -50 -81 -70 -112 -21 -32 -75 -119
-122 -193 -47 -74 -101 -160 -120 -190 -19 -30 -62 -98 -96 -152 -34 -54 -132
-210 -219 -348 -87 -137 -218 -347 -293 -465 -123 -196 -238 -379 -297 -470
-12 -19 -60 -96 -107 -170 -182 -291 -432 -688 -463 -735 -18 -27 -70 -111
-117 -185 -131 -209 -442 -702 -524 -831 -73 -114 -74 -117 -74 -182 l0 -67
4385 0 4384 0 -78 123 c-42 67 -140 221 -216 342 -76 121 -148 236 -160 255
-13 19 -61 96 -108 170 -158 252 -469 745 -492 780 -12 19 -46 73 -75 120 -29
47 -63 101 -75 120 -24 37 -329 521 -473 750 -46 74 -95 151 -107 170 -13 19
-94 148 -180 285 -86 138 -167 266 -180 285 -12 19 -62 98 -110 175 -48 77
-102 163 -120 190 -18 28 -83 131 -146 230 -62 98 -171 272 -242 385 -161 255
-207 329 -207 335 0 3 7 5 16 5 9 0 30 7 47 15 18 8 66 27 107 44 186 72 432
193 610 301 116 69 343 222 376 252 13 11 28 16 40 12 13 -4 15 -3 6 3 -9 7
18 33 95 95 319 253 672 644 898 993 243 374 458 854 549 1225 15 58 33 128
41 155 24 81 83 469 94 620 36 476 -6 939 -129 1425 -61 243 -172 533 -307
805 -107 215 -142 277 -257 450 -184 276 -312 431 -551 671 -202 203 -372 349
-560 479 -39 27 -90 63 -115 80 -145 101 -482 284 -685 372 -342 149 -743 260
-1150 318 -133 19 -1046 19 -1175 0z m721 -2595 c153 -16 387 -61 414 -80 6
-4 42 -18 80 -30 90 -30 226 -98 329 -164 551 -357 841 -981 752 -1621 -21
-150 -37 -213 -86 -345 -100 -271 -248 -484 -471 -681 -78 -69 -84 -73 -194
-146 -228 -151 -518 -248 -823 -275 -320 -28 -684 51 -978 213 -400 220 -697
596 -812 1029 -45 165 -56 250 -56 425 0 383 116 719 354 1029 214 279 583
515 930 596 225 53 387 67 561 50z"/>
<path style="fill:#ff0000;" d="M35632 16168 l3 -1953 27 -137 c57 -281 147 -502 298 -728 81 -121
128 -178 251 -305 60 -62 105 -116 101 -120 -4 -5 -2 -6 3 -2 6 3 44 -21 85
-54 201 -160 441 -291 641 -349 40 -12 95 -28 120 -35 164 -50 569 -71 799
-41 246 32 510 123 715 244 393 232 720 602 882 997 171 417 197 905 71 1349
-21 77 -43 145 -47 151 -4 5 -16 33 -26 60 -39 109 -182 351 -274 465 -203
252 -463 465 -723 592 -165 80 -264 115 -423 149 -55 12 -118 25 -140 30 -22
6 -143 12 -270 15 -175 4 -255 2 -335 -10 -320 -45 -587 -145 -835 -312 l-95
-63 0 1005 0 1004 -415 0 -415 0 2 -1952z m2297 -523 c46 -9 91 -20 100 -25 9
-4 39 -16 66 -26 275 -95 545 -350 678 -640 97 -210 125 -502 73 -754 -93
-446 -477 -828 -921 -917 -136 -27 -396 -24 -535 6 -58 12 -118 28 -135 36
-209 92 -307 156 -435 284 -189 191 -274 349 -342 641 -14 58 -14 372 0 430
47 201 110 354 195 469 220 301 500 469 857 515 70 9 317 -3 399 -19z"/>
<path style="fill:#ff0000;" d="M15109 16490 c-37 -4 -100 -16 -140 -25 -140 -32 -274 -68 -284 -75
-5 -3 -32 -15 -60 -25 -74 -27 -216 -99 -317 -162 -334 -207 -682 -606 -808
-928 -13 -33 -27 -64 -31 -70 -4 -5 -19 -53 -34 -105 -15 -52 -33 -114 -41
-137 -29 -89 -55 -324 -55 -498 0 -161 23 -379 51 -485 101 -384 261 -666 535
-944 245 -247 545 -435 825 -516 41 -12 97 -28 124 -36 217 -67 748 -71 971
-9 168 47 260 77 335 109 101 43 276 142 348 197 l52 39 0 -195 0 -195 421 0
420 0 -4 1118 c-4 1217 -1 1154 -61 1417 -60 259 -214 560 -402 786 -86 103
-275 283 -376 359 -47 35 -82 68 -80 76 2 8 -2 14 -8 14 -6 0 -8 -4 -5 -10 10
-17 -2 -12 -70 30 -167 102 -363 183 -550 225 -66 15 -138 32 -160 37 -54 12
-513 19 -596 8z m522 -844 c237 -52 455 -177 625 -359 145 -155 232 -312 286
-514 31 -113 32 -126 32 -308 0 -182 -1 -195 -32 -310 -50 -188 -135 -347
-258 -485 -25 -27 -51 -47 -56 -43 -6 3 -8 1 -4 -5 9 -14 -103 -113 -199 -176
-277 -180 -632 -233 -980 -145 -107 27 -284 114 -381 187 -94 71 -220 200
-287 294 -96 136 -171 330 -199 518 -6 36 -8 130 -5 210 9 307 113 556 322
778 186 198 427 328 680 367 109 17 360 12 456 -9z"/>
<path style="fill:#ff0000;" d="M19569 16490 c-95 -12 -403 -85 -424 -100 -5 -4 -28 -13 -50 -20 -55
-18 -215 -98 -298 -148 -70 -43 -83 -49 -72 -32 3 6 1 10 -5 10 -7 0 -10 -7
-7 -14 4 -10 -7 -23 -31 -38 -86 -53 -276 -227 -396 -363 -108 -121 -169 -209
-259 -370 -254 -458 -304 -1093 -125 -1614 100 -295 265 -550 512 -796 67 -65
120 -123 119 -127 -2 -4 3 -5 10 -2 7 2 31 -10 52 -29 157 -131 434 -278 625
-331 36 -10 94 -27 130 -37 238 -66 761 -64 989 6 25 7 80 23 120 35 209 61
465 202 656 362 280 235 480 501 614 818 41 98 101 302 101 348 l0 22 -426 0
-426 0 -6 -22 c-10 -40 -100 -208 -146 -272 -117 -164 -291 -314 -456 -393
-52 -25 -103 -49 -112 -54 -33 -16 -175 -48 -272 -60 -123 -15 -308 -6 -432
20 -114 24 -286 98 -383 165 -94 64 -193 155 -184 169 3 5 1 7 -4 4 -13 -8
-99 84 -152 162 -58 85 -126 228 -149 311 -45 165 -54 237 -50 394 5 190 38
334 107 481 65 137 127 221 251 345 149 150 270 226 456 288 137 46 203 56
384 56 190 0 283 -15 427 -68 223 -84 426 -241 568 -441 49 -69 145 -253 145
-278 0 -16 31 -17 430 -17 l430 0 0 23 c0 44 -61 253 -101 347 -99 233 -217
415 -401 619 -37 40 -65 78 -61 84 3 5 1 7 -5 3 -6 -3 -50 29 -99 72 -251 221
-531 367 -840 438 -65 15 -136 31 -158 36 -54 12 -513 19 -596 8z"/>
<path style="fill:#ff0000;" d="M24029 16490 c-129 -16 -374 -78 -477 -120 -318 -130 -576 -318 -816
-593 -204 -236 -374 -564 -431 -837 -26 -124 -55 -373 -55 -475 0 -103 29
-351 56 -478 44 -212 172 -495 312 -689 69 -96 213 -258 297 -334 47 -42 82
-81 78 -87 -4 -6 -1 -7 6 -2 8 4 23 -3 39 -17 33 -30 173 -128 227 -158 123
-70 169 -93 258 -130 53 -22 139 -51 190 -65 50 -13 107 -29 125 -34 18 -6 92
-18 164 -27 236 -30 632 -10 797 41 25 7 79 23 120 35 198 57 444 191 635 344
38 31 73 53 79 49 6 -3 7 -2 4 4 -3 5 37 52 89 104 196 194 344 408 452 655
33 76 92 260 106 334 l13 65 -434 -5 c-284 -3 -434 -2 -436 5 -2 6 -4 -4 -4
-21 0 -40 -83 -205 -147 -292 -27 -37 -91 -108 -141 -158 -127 -125 -225 -189
-430 -279 -17 -8 -77 -24 -135 -36 -139 -30 -399 -33 -535 -6 -431 87 -808
451 -911 883 -26 108 -29 135 -29 299 0 160 3 192 27 291 48 201 148 382 297
537 137 143 292 248 446 301 28 10 57 22 67 26 83 44 445 60 608 27 113 -22
266 -81 367 -142 214 -127 421 -367 505 -585 l23 -60 429 0 429 0 -7 48 c-7
54 -70 256 -107 342 -251 589 -801 1061 -1394 1196 -66 15 -140 31 -165 36
-62 12 -510 19 -591 8z"/>
<path style="fill:#ff0000;" d="M28480 16489 c-125 -15 -344 -70 -460 -116 -248 -98 -426 -212 -649
-413 -58 -52 -108 -95 -111 -95 -3 0 -4 -4 -2 -8 1 -4 -14 -25 -33 -45 -60
-62 -179 -222 -233 -313 -119 -198 -209 -435 -241 -639 -48 -292 -51 -413 -21
-653 24 -186 31 -220 72 -352 99 -319 258 -577 517 -835 75 -74 135 -139 133
-143 -1 -5 2 -6 7 -3 5 4 22 -4 38 -17 25 -21 184 -131 238 -164 182 -114 481
-217 718 -248 249 -32 598 -15 807 41 176 47 189 52 355 129 316 146 620 410
837 725 69 100 168 280 168 305 0 13 -62 15 -482 15 l-483 0 -80 -76 c-214
-203 -462 -307 -766 -321 -197 -10 -377 22 -544 94 -250 108 -476 326 -601
578 l-54 110 1569 3 c1484 2 1570 3 1575 20 8 28 25 189 32 307 7 127 -8 336
-36 498 -35 203 -129 445 -250 642 -183 299 -488 588 -801 759 -189 103 -470
191 -694 216 -106 12 -418 11 -525 -1z m528 -844 c217 -43 424 -158 598 -330
98 -98 166 -192 228 -320 l55 -110 -570 -3 c-313 -1 -826 -1 -1139 0 l-570 3
55 109 c172 342 516 605 855 655 41 6 86 13 100 15 49 9 316 -4 388 -19z"/>
<path style="fill:#ff0000;" d="M31170 16085 l0 -415 1448 0 c1595 0 1514 3 1615 -62 69 -44 122
-110 151 -186 34 -91 40 -141 26 -209 -36 -174 -156 -297 -317 -323 -33 -6
-428 -10 -933 -10 -820 0 -881 -1 -976 -19 -55 -11 -126 -27 -157 -36 -122
-35 -285 -125 -407 -224 -24 -20 -48 -35 -53 -33 -5 1 -6 -1 -3 -6 3 -5 -15
-29 -40 -53 -53 -50 -145 -170 -192 -246 -98 -161 -162 -402 -162 -606 0 -136
36 -338 78 -441 69 -167 157 -298 293 -433 184 -183 399 -298 633 -338 77 -13
291 -15 1582 -15 l1494 0 -2 413 -3 412 -1475 5 -1475 5 -63 29 c-72 33 -153
114 -190 189 -96 194 -7 434 196 530 l67 32 960 6 c528 3 971 9 985 13 14 4
66 19 115 33 291 81 579 313 738 598 193 344 194 813 1 1160 -153 275 -435
509 -711 591 -48 14 -104 31 -123 37 -25 8 -485 12 -1567 14 l-1533 3 0 -415z"/>
<path style="fill:#ff0000;" d="M40093 15348 l3 -1153 31 -147 c18 -81 46 -189 64 -240 60 -178 169
-386 282 -535 23 -31 36 -57 31 -64 -4 -7 -3 -9 3 -6 6 4 36 -21 66 -56 196
-222 416 -397 645 -511 184 -92 322 -138 527 -178 150 -29 488 -36 665 -14
126 16 381 78 454 111 197 87 330 160 417 227 20 15 40 28 43 28 13 0 5 -112
-13 -201 -55 -265 -151 -441 -346 -633 -198 -197 -445 -311 -730 -337 -55 -5
-104 -11 -110 -13 -7 -2 -9 -147 -7 -415 l2 -411 58 0 c72 0 337 34 428 55
353 81 674 265 959 549 77 77 144 139 148 138 5 -1 6 2 3 7 -3 5 11 31 32 58
159 201 276 435 346 688 69 254 66 148 66 2282 l0 1923 -415 0 -415 0 0 -1088
c0 -1060 -1 -1090 -21 -1182 -33 -153 -48 -199 -105 -310 -131 -256 -342 -453
-607 -569 -151 -66 -257 -85 -467 -85 -183 0 -322 20 -423 62 -151 62 -345
182 -330 205 4 6 1 7 -6 2 -18 -10 -147 119 -222 222 -54 74 -130 213 -157
288 -23 65 -51 185 -61 265 -7 55 -11 459 -11 1137 l0 1053 -415 0 -416 0 4
-1152z"/>
</g>
</svg>
