<?xml version="1.0" standalone="no"?>
<!DOCTYPE svg PUBLIC "-//W3C//DTD SVG 20010904//EN"
 "http://www.w3.org/TR/2001/REC-SVG-20010904/DTD/svg10.dtd">
<svg version="1.0" xmlns="http://www.w3.org/2000/svg"
 width="1415.000000pt" height="1190.000000pt" viewBox="0 0 1415.000000 1190.000000"
 preserveAspectRatio="xMidYMid meet">
<metadata>
Created by potrace 1.16, written by Peter Selinger 2001-2019
</metadata>
<g transform="translate(0.000000,1190.000000) scale(0.100000,-0.100000)"
fill="#000000" stroke="none">
<path style="fill:#ff0000;" d="M6535 11549 c-1594 -142 -2931 -1283 -3303 -2819 -80 -330 -96 -477
-97 -870 0 -342 4 -398 46 -640 223 -1274 1111 -2352 2324 -2820 61 -23 111
-43 113 -45 1 -1 -576 -920 -1284 -2041 -707 -1122 -1288 -2045 -1291 -2051
-4 -10 766 -13 3832 -13 3066 0 3836 3 3832 12 -3 7 -584 930 -1291 2052 -708
1121 -1285 2040 -1284 2041 2 1 63 26 135 55 1201 471 2081 1545 2302 2810 42
242 46 298 46 640 -1 393 -17 540 -97 870 -374 1544 -1709 2678 -3318 2820
-133 11 -533 11 -665 -1z m454 -2249 c143 -13 239 -32 367 -75 372 -123 688
-397 865 -746 43 -87 105 -277 125 -390 20 -115 23 -335 5 -439 -16 -96 -46
-206 -78 -295 -148 -401 -506 -740 -924 -873 -324 -104 -624 -104 -948 0 -411
131 -770 466 -916 855 -139 369 -131 739 25 1094 161 366 493 664 884 794 145
49 270 71 461 84 11 0 71 -4 134 -9z"/>
</g>
</svg>
