<svg width="122" height="120" viewBox="0 0 122 120" fill="none" xmlns="http://www.w3.org/2000/svg">
<ellipse cx="61" cy="54" rx="53" ry="49" fill="white"/>
<path fill-rule="evenodd" clip-rule="evenodd" d="M61 5C30.1188 5 5.08337 29.625 5.08337 60C5.08337 90.375 30.1188 115 61 115C91.8813 115 116.917 90.375 116.917 60C116.917 29.625 91.8813 5 61 5ZM85.2374 50.7C85.6837 50.1982 86.0234 49.6137 86.2367 48.9808C86.4499 48.348 86.5323 47.6796 86.4791 47.0149C86.4258 46.3503 86.238 45.7028 85.9265 45.1106C85.6151 44.5185 85.1865 43.9935 84.6657 43.5667C84.145 43.1399 83.5428 42.8198 82.8945 42.6253C82.2461 42.4308 81.5648 42.3658 80.8905 42.4341C80.2163 42.5025 79.5627 42.7027 78.9683 43.0232C78.3739 43.3436 77.8507 43.7777 77.4294 44.3L55.571 70.095L44.2606 58.965C43.3019 58.0542 42.0178 57.5502 40.685 57.5616C39.3522 57.573 38.0772 58.0989 37.1347 59.0259C36.1922 59.9529 35.6576 61.207 35.646 62.518C35.6344 63.829 36.1468 65.092 37.0728 66.035L52.3228 81.035C52.8223 81.526 53.4203 81.9092 54.0786 82.1603C54.737 82.4114 55.4414 82.5248 56.1468 82.4932C56.8522 82.4617 57.5433 82.286 58.1758 81.9772C58.8083 81.6685 59.3685 81.2335 59.8207 80.7L85.2374 50.7Z" fill="#F21212"/>
</svg>
