<svg width="55" height="54" viewBox="0 0 55 54" fill="none" xmlns="http://www.w3.org/2000/svg">
<mask id="path-1-inside-1_864_73" fill="white">
<path d="M38.5894 20.5773C38.5894 29.6628 31.0613 37.0527 21.8075 37.0527C12.5524 37.0527 5.02288 29.6615 5.02288 20.5773C5.02288 11.4932 12.5524 4.10193 21.8075 4.10193C31.0613 4.10193 38.5894 11.4932 38.5894 20.5773V20.5773ZM6.23288 20.5773C6.23288 29.0081 13.2206 35.8661 21.8089 35.8661C30.3958 35.8661 37.3821 29.0081 37.3821 20.5773C37.3821 12.1466 30.3958 5.28858 21.8089 5.28858C13.2206 5.28858 6.23288 12.1466 6.23288 20.5773Z"/>
</mask>
<path d="M38.5894 20.5773C38.5894 29.6628 31.0613 37.0527 21.8075 37.0527C12.5524 37.0527 5.02288 29.6615 5.02288 20.5773C5.02288 11.4932 12.5524 4.10193 21.8075 4.10193C31.0613 4.10193 38.5894 11.4932 38.5894 20.5773V20.5773ZM6.23288 20.5773C6.23288 29.0081 13.2206 35.8661 21.8089 35.8661C30.3958 35.8661 37.3821 29.0081 37.3821 20.5773C37.3821 12.1466 30.3958 5.28858 21.8089 5.28858C13.2206 5.28858 6.23288 12.1466 6.23288 20.5773Z" fill="black"/>
<path d="M36.5894 20.5773C36.5894 28.5236 29.9917 35.0527 21.8075 35.0527V39.0527C32.1309 39.0527 40.5894 30.8021 40.5894 20.5773H36.5894ZM21.8075 35.0527C13.6218 35.0527 7.02288 28.5221 7.02288 20.5773H3.02288C3.02288 30.8009 11.483 39.0527 21.8075 39.0527V35.0527ZM7.02288 20.5773C7.02288 12.6326 13.6218 6.10193 21.8075 6.10193V2.10193C11.483 2.10193 3.02288 10.3538 3.02288 20.5773H7.02288ZM21.8075 6.10193C29.9915 6.10193 36.5894 12.6323 36.5894 20.5773H40.5894C40.5894 10.3541 32.131 2.10193 21.8075 2.10193V6.10193ZM4.23288 20.5773C4.23288 30.1477 12.1514 37.8661 21.8089 37.8661V33.8661C14.2899 33.8661 8.23288 27.8685 8.23288 20.5773H4.23288ZM21.8089 37.8661C31.4653 37.8661 39.3821 30.1473 39.3821 20.5773H35.3821C35.3821 27.8688 29.3262 33.8661 21.8089 33.8661V37.8661ZM39.3821 20.5773C39.3821 11.0073 31.4653 3.28859 21.8089 3.28859V7.28859C29.3262 7.28859 35.3821 13.2858 35.3821 20.5773H39.3821ZM21.8089 3.28859C12.1514 3.28859 4.23288 11.007 4.23288 20.5773H8.23288C8.23288 13.2862 14.2899 7.28859 21.8089 7.28859V3.28859Z" fill="black" mask="url(#path-1-inside-1_864_73)"/>
<mask id="path-3-inside-2_864_73" fill="white">
<path d="M22.4125 7.87167C22.4125 8.02921 22.3488 8.1803 22.2353 8.2917C22.1219 8.40309 21.968 8.46567 21.8075 8.46567C15.004 8.46567 9.46827 13.8994 9.46827 20.5779C9.46827 20.7354 9.40453 20.8865 9.29107 20.9979C9.17761 21.1093 9.02373 21.1719 8.86327 21.1719C8.70281 21.1719 8.54893 21.1093 8.43547 20.9979C8.32201 20.8865 8.25827 20.7354 8.25827 20.5779C8.25827 13.2447 14.3358 7.27902 21.8061 7.27902C21.8856 7.27866 21.9644 7.29374 22.038 7.32336C22.1115 7.35298 22.1784 7.39658 22.2348 7.45165C22.2911 7.50672 22.3358 7.57217 22.3663 7.64425C22.3968 7.71633 22.4125 7.79362 22.4125 7.87167V7.87167Z"/>
</mask>
<path d="M22.4125 7.87167C22.4125 8.02921 22.3488 8.1803 22.2353 8.2917C22.1219 8.40309 21.968 8.46567 21.8075 8.46567C15.004 8.46567 9.46827 13.8994 9.46827 20.5779C9.46827 20.7354 9.40453 20.8865 9.29107 20.9979C9.17761 21.1093 9.02373 21.1719 8.86327 21.1719C8.70281 21.1719 8.54893 21.1093 8.43547 20.9979C8.32201 20.8865 8.25827 20.7354 8.25827 20.5779C8.25827 13.2447 14.3358 7.27902 21.8061 7.27902C21.8856 7.27866 21.9644 7.29374 22.038 7.32336C22.1115 7.35298 22.1784 7.39658 22.2348 7.45165C22.2911 7.50672 22.3358 7.57217 22.3663 7.64425C22.3968 7.71633 22.4125 7.79362 22.4125 7.87167V7.87167Z" fill="black"/>
<path d="M8.86327 21.1719V23.1719V21.1719ZM21.8061 7.27902V9.27904L21.8151 9.279L21.8061 7.27902ZM20.4125 7.87167C20.4125 7.48683 20.5686 7.12531 20.8341 6.86457L23.6365 9.71882C24.129 9.23529 24.4125 8.5716 24.4125 7.87167L20.4125 7.87167ZM20.8341 6.86457C21.0985 6.60505 21.4493 6.46567 21.8075 6.46567V10.4657C22.4867 10.4657 23.1453 10.2011 23.6365 9.71882L20.8341 6.86457ZM21.8075 6.46567C13.9346 6.46567 7.46827 12.76 7.46827 20.5779H11.4683C11.4683 15.0389 16.0734 10.4657 21.8075 10.4657V6.46567ZM7.46827 20.5779C7.46827 20.193 7.62433 19.8315 7.88989 19.5708L10.6922 22.425C11.1847 21.9415 11.4683 21.2778 11.4683 20.5779H7.46827ZM7.88989 19.5708C8.1542 19.3113 8.505 19.1719 8.86327 19.1719V23.1719C9.54245 23.1719 10.201 22.9073 10.6922 22.425L7.88989 19.5708ZM8.86327 19.1719C9.22153 19.1719 9.57234 19.3113 9.83665 19.5708L7.03429 22.425C7.52552 22.9073 8.18409 23.1719 8.86327 23.1719V19.1719ZM9.83665 19.5708C10.1022 19.8315 10.2583 20.193 10.2583 20.5779H6.25827C6.25827 21.2778 6.54181 21.9415 7.03429 22.425L9.83665 19.5708ZM10.2583 20.5779C10.2583 14.3841 15.4052 9.27902 21.8061 9.27902V5.27902C13.2664 5.27902 6.25827 12.1053 6.25827 20.5779H10.2583ZM21.8151 9.279C21.6362 9.2798 21.4581 9.24593 21.2908 9.17854L22.7852 5.46818C22.4708 5.34155 22.1351 5.27753 21.7972 5.27904L21.8151 9.279ZM21.2908 9.17854C21.1234 9.11111 20.9688 9.01093 20.8368 8.88196L23.6327 6.02134C23.388 5.78223 23.0997 5.59486 22.7852 5.46818L21.2908 9.17854ZM20.8368 8.88196C20.7048 8.75292 20.598 8.59755 20.5245 8.42378L24.2081 6.86473C24.0736 6.54679 23.8774 6.26051 23.6327 6.02134L20.8368 8.88196ZM20.5245 8.42378C20.4509 8.24989 20.4125 8.06214 20.4125 7.87165L24.4125 7.8717C24.4125 7.5251 24.3428 7.18278 24.2081 6.86473L20.5245 8.42378Z" fill="black" mask="url(#path-3-inside-2_864_73)"/>
<mask id="path-5-inside-3_864_73" fill="white">
<path d="M49.9758 49.305C49.9754 49.4254 49.9379 49.5428 49.8681 49.6417C49.7983 49.7406 49.6995 49.8164 49.5849 49.859C49.4702 49.9016 49.3451 49.909 49.2261 49.8802C49.1071 49.8515 48.9998 49.7879 48.9184 49.6979L33.0399 31.9913C32.9417 31.8723 32.8941 31.7206 32.907 31.568C32.92 31.4153 32.9925 31.2735 33.1095 31.1721C33.2264 31.0707 33.3787 31.0176 33.5346 31.0238C33.6905 31.0301 33.8379 31.0952 33.946 31.2056L49.8245 48.9135C49.9221 49.0214 49.9759 49.1607 49.9758 49.305V49.305Z"/>
</mask>
<path d="M49.9758 49.305C49.9754 49.4254 49.9379 49.5428 49.8681 49.6417C49.7983 49.7406 49.6995 49.8164 49.5849 49.859C49.4702 49.9016 49.3451 49.909 49.2261 49.8802C49.1071 49.8515 48.9998 49.7879 48.9184 49.6979L33.0399 31.9913C32.9417 31.8723 32.8941 31.7206 32.907 31.568C32.92 31.4153 32.9925 31.2735 33.1095 31.1721C33.2264 31.0707 33.3787 31.0176 33.5346 31.0238C33.6905 31.0301 33.8379 31.0952 33.946 31.2056L49.8245 48.9135C49.9221 49.0214 49.9759 49.1607 49.9758 49.305V49.305Z" fill="black"/>
<path d="M48.9184 49.6979L47.4294 51.0331L47.4351 51.0395L48.9184 49.6979ZM33.0399 31.9913L31.4974 33.2643L31.5235 33.296L31.5509 33.3265L33.0399 31.9913ZM33.946 31.2056L35.4351 29.8704L35.4056 29.8376L35.3748 29.8061L33.946 31.2056ZM49.8245 48.9135L48.3355 50.2487L48.3413 50.2552L49.8245 48.9135ZM47.9758 49.2997C47.9766 49.0063 48.0683 48.7234 48.2339 48.4887L51.5023 50.7947C51.8075 50.3621 51.9743 49.8445 51.9758 49.3104L47.9758 49.2997ZM48.2339 48.4887C48.3992 48.2544 48.6289 48.0806 48.8883 47.9842L50.2814 51.7338C50.7702 51.5522 51.1974 51.2269 51.5023 50.7947L48.2339 48.4887ZM48.8883 47.9842C49.1475 47.888 49.4286 47.8716 49.6961 47.9362L48.7561 51.8242C49.2617 51.9465 49.793 51.9153 50.2814 51.7338L48.8883 47.9842ZM49.6961 47.9362C49.9639 48.001 50.2109 48.1453 50.4017 48.3563L47.4351 51.0395C47.7887 51.4304 48.2503 51.7019 48.7561 51.8242L49.6961 47.9362ZM50.4074 48.3626L34.5289 30.656L31.5509 33.3265L47.4294 51.0331L50.4074 48.3626ZM34.5824 30.7183C34.8144 30.9994 34.9315 31.3645 34.8999 31.7372L30.9142 31.3987C30.8566 32.0767 31.0689 32.7452 31.4974 33.2643L34.5824 30.7183ZM34.8999 31.7372C34.8682 32.1096 34.6918 32.4472 34.4197 32.6832L31.7992 29.661C31.2932 30.0998 30.9718 30.721 30.9142 31.3987L34.8999 31.7372ZM34.4197 32.6832C34.1487 32.9181 33.8028 33.0361 33.4546 33.0222L33.6146 29.0254C32.9547 28.999 32.3041 29.2233 31.7992 29.661L34.4197 32.6832ZM33.4546 33.0222C33.1064 33.0083 32.7697 32.8628 32.5173 32.6051L35.3748 29.8061C34.9061 29.3276 34.2746 29.0518 33.6146 29.0254L33.4546 33.0222ZM32.457 32.5408L48.3355 50.2487L51.3136 47.5783L35.4351 29.8704L32.457 32.5408ZM48.3413 50.2552C48.1088 49.9981 47.9754 49.6596 47.9758 49.3028L51.9758 49.3073C51.9765 48.6619 51.7354 48.0447 51.3078 47.5719L48.3413 50.2552Z" fill="black" mask="url(#path-5-inside-3_864_73)"/>
</svg>
