<svg width="49" height="32" viewBox="0 0 49 32" fill="none" xmlns="http://www.w3.org/2000/svg">
<path d="M30.9429 21.8131L35.3287 21.8321L35.3498 16.949L37.5427 16.9585L37.5568 13.7031L35.3991 5.55512L2.50552 5.41285L0.27742 13.5419L0.26334 16.7973L2.45624 16.8067L2.414 26.5729L22.1501 26.6583L22.1924 16.8921L30.964 16.93L30.9429 21.8131ZM17.7784 23.3839L6.81389 23.3365L6.84205 16.8257L17.8066 16.8731L17.7784 23.3839ZM2.52664 0.529748L35.4202 0.672017L35.4061 3.92742L2.51256 3.78515L2.52664 0.529748Z" fill="#8237FB" fill-opacity="0.94"/>
<path d="M41.9004 23.4881L41.9215 18.605L37.5357 18.5861L37.5146 23.4692L30.9359 23.4407L30.9218 26.6961L37.5005 26.7246L37.4794 31.6077L41.8652 31.6266L41.8863 26.7435L48.465 26.772L48.4791 23.5166L41.9004 23.4881Z" fill="#F21212"/>
</svg>
