<svg width="49" height="49" viewBox="0 0 49 49" fill="none" xmlns="http://www.w3.org/2000/svg">
<path d="M38.2661 44.804L12.2694 44.3919L12.9033 4.39697L38.9001 4.80902C41.0998 4.84389 42.871 6.67219 42.8362 8.87191L42.329 40.8679C42.2942 43.0676 40.4659 44.8389 38.2661 44.804Z" fill="#F21212" fill-opacity="0.51"/>
<path d="M10.9036 4.36539L12.9033 4.39709L12.2694 44.3921L10.2696 44.3604C8.0699 44.3255 6.29865 42.4972 6.33352 40.2975L6.84066 8.3015C6.87553 6.10178 8.70383 4.33053 10.9036 4.36539Z" fill="#F21212"/>
<path d="M26.5846 24.6166C28.7935 24.6516 30.6125 22.8893 30.6475 20.6805C30.6825 18.4716 28.9203 16.6526 26.7114 16.6176C24.5026 16.5826 22.6835 18.3448 22.6485 20.5537C22.6135 22.7626 24.3758 24.5816 26.5846 24.6166Z" fill="#F21212" fill-opacity="0.97"/>
<path d="M33.4887 30.7267C33.4887 30.7267 31.6523 26.6971 26.553 26.6163C21.4536 26.5355 19.4904 30.5049 19.4904 30.5049L19.4587 32.5046L33.457 32.7265L33.4887 30.7267Z" fill="#F21212" fill-opacity="0.97"/>
</svg>
