<svg width="41" height="57" viewBox="0 0 41 57" fill="none" xmlns="http://www.w3.org/2000/svg">
<path d="M13.1035 14.7474V7.87372C13.1035 6.05069 13.5757 4.30234 14.4164 3.01327C15.2571 1.72419 16.3973 1 17.5862 1H35.5172C36.7061 1 37.8463 1.72419 38.687 3.01327C39.5277 4.30234 40 6.05069 40 7.87372V49.116C40 50.9391 39.5277 52.6874 38.687 53.9765C37.8463 55.2656 36.7061 55.9897 35.5172 55.9897H18.4828C16.0072 55.9897 13.1035 52.912 13.1035 49.116V42.2423" stroke="black" stroke-width="1.5" stroke-linecap="round" stroke-linejoin="round"/>
<path d="M24.3104 42.2427L33.2759 28.4954L24.3104 14.748" stroke="black" stroke-width="1.5" stroke-linecap="round" stroke-linejoin="round"/>
<path d="M1 28.4951H31.4828" stroke="black" stroke-width="1.5" stroke-linecap="round" stroke-linejoin="round"/>
</svg>
