<svg width="19" height="20" viewBox="0 0 19 20" fill="none" xmlns="http://www.w3.org/2000/svg">
<path d="M18.4713 17.7192L15.1516 13.7536C15.0018 13.5746 14.7883 13.4588 14.5567 13.4295L13.967 13.3551C15.0674 12.2382 15.7888 10.7498 15.9281 9.04918C16.2595 5.0036 13.1596 1.3005 9.00242 0.775879C4.84524 0.251257 1.20829 3.10418 0.876902 7.14977C0.545512 11.1953 3.64543 14.8984 7.80261 15.4231C9.55014 15.6436 11.2039 15.2689 12.5607 14.4583L12.5136 15.0322C12.4952 15.2575 12.568 15.4837 12.7179 15.6627L16.0376 19.6283C16.3505 20.0022 16.9005 20.0716 17.2641 19.7831L18.3696 18.9159C18.7368 18.6279 18.7807 18.0927 18.4713 17.7192ZM8.03334 12.6063C5.47536 12.2835 3.56717 10.0079 3.77137 7.51504C3.97528 5.02572 6.21008 3.26938 8.77169 3.59265C11.3297 3.91546 13.2379 6.19107 13.0337 8.68391C12.8297 11.1732 10.5949 12.9296 8.03334 12.6063Z" fill="#BEBDBD"/>
</svg>
