<svg width="33" height="33" viewBox="0 0 33 33" fill="none" xmlns="http://www.w3.org/2000/svg">
<path d="M17.3836 2.32612C9.33353 2.06132 2.59346 8.37211 2.32867 16.4221C2.06388 24.4722 8.37466 31.2122 16.4247 31.477C24.4747 31.7418 31.2148 25.431 31.4796 17.381C31.7444 9.33098 25.4336 2.59091 17.3836 2.32612Z" stroke="#F21212" stroke-width="3" stroke-linecap="round" stroke-linejoin="round"/>
<path d="M5.3345 25.7805C5.3345 25.7805 8.71982 21.7392 16.7363 22.0029C24.7528 22.2666 27.8667 26.5217 27.8667 26.5217" stroke="#F21212" stroke-width="3" stroke-linecap="round" stroke-linejoin="round"/>
<path d="M16.9041 16.9016C18.0638 16.9397 19.1911 16.5156 20.0381 15.7225C20.8851 14.9295 21.3824 13.8324 21.4205 12.6727C21.4587 11.5131 21.0346 10.3857 20.2415 9.5387C19.4485 8.6917 18.3514 8.19443 17.1917 8.15628C16.032 8.11814 14.9047 8.54224 14.0577 9.33529C13.2107 10.1283 12.7134 11.2254 12.6753 12.3851C12.6371 13.5448 13.0612 14.6721 13.8543 15.5191C14.6473 16.3661 15.7444 16.8634 16.9041 16.9016V16.9016Z" stroke="#F21212" stroke-width="3" stroke-linecap="round" stroke-linejoin="round"/>
</svg>
