<svg width="45" height="42" viewBox="0 0 45 42" fill="none" xmlns="http://www.w3.org/2000/svg">
<path d="M1.16667 36.3333V34.1667C1.16667 30.1442 2.70312 26.2865 5.43803 23.4422C8.17293 20.5979 11.8823 19 15.75 19V19" stroke="black" stroke-width="1.5" stroke-linecap="round" stroke-linejoin="round"/>
<path d="M29.925 19.6788C30.2409 19.3182 30.6257 19.0302 31.0547 18.8331C31.4838 18.636 31.9476 18.5342 32.4167 18.5342C32.8857 18.5342 33.3496 18.636 33.7786 18.8331C34.2077 19.0302 34.5924 19.3182 34.9083 19.6788V19.6788C35.5854 20.4523 36.5542 20.8704 37.5583 20.8206C38.0271 20.7977 38.4952 20.8769 38.9329 21.0531C39.3705 21.2292 39.7679 21.4985 40.0997 21.8435C40.4315 22.1886 40.6904 22.602 40.8598 23.0571C41.0292 23.5122 41.1053 23.9991 41.0833 24.4866V24.4866C41.0354 25.5288 41.4375 26.5384 42.1792 27.2426C43.6479 28.6336 43.6479 31.0343 42.1792 32.4253C41.4375 33.1294 41.0354 34.1369 41.0833 35.1813C41.1053 35.6688 41.0292 36.1557 40.8598 36.6108C40.6904 37.0659 40.4315 37.4792 40.0997 37.8243C39.7679 38.1694 39.3705 38.4387 38.9329 38.6148C38.4952 38.7909 38.0271 38.8701 37.5583 38.8473V38.8473C37.0632 38.8229 36.569 38.9124 36.111 39.1094C35.6529 39.3064 35.2423 39.606 34.9083 39.9869C34.5924 40.3475 34.2077 40.6355 33.7786 40.8326C33.3496 41.0297 32.8857 41.1315 32.4167 41.1315C31.9476 41.1315 31.4838 41.0297 31.0547 40.8326C30.6257 40.6355 30.2409 40.3475 29.925 39.9869V39.9869C29.591 39.606 29.1804 39.3064 28.7223 39.1094C28.2643 38.9124 27.7701 38.8229 27.275 38.8473V38.8473C26.8063 38.8701 26.3381 38.7909 25.9005 38.6148C25.4628 38.4387 25.0654 38.1694 24.7336 37.8243C24.4018 37.4792 24.1429 37.0659 23.9735 36.6108C23.8042 36.1557 23.728 35.6688 23.75 35.1813V35.1813C23.7731 34.6662 23.6868 34.1521 23.497 33.6758C23.3072 33.1994 23.0187 32.7724 22.6521 32.4253V32.4253C22.3054 32.0967 22.0284 31.6966 21.8389 31.2504C21.6494 30.8042 21.5515 30.3217 21.5515 29.8339C21.5515 29.3461 21.6494 28.8637 21.8389 28.4175C22.0284 27.9713 22.3054 27.5711 22.6521 27.2426V27.2426C23.3958 26.5384 23.7979 25.5309 23.75 24.4866C23.728 23.9991 23.8042 23.5122 23.9735 23.0571C24.1429 22.602 24.4018 22.1886 24.7336 21.8435C25.0654 21.4985 25.4628 21.2292 25.9005 21.0531C26.3381 20.8769 26.8063 20.7977 27.275 20.8206V20.8206C28.2771 20.8704 29.2479 20.4523 29.925 19.6788V19.6788Z" stroke="black" stroke-width="1.5"/>
<path d="M29.0083 29.8343L31.2792 32.196L35.825 27.4727" stroke="black" stroke-width="1.5" stroke-linecap="round" stroke-linejoin="round"/>
<path d="M15.75 19.0003C17.9601 19.0003 20.0798 18.0872 21.6426 16.4619C23.2054 14.8366 24.0833 12.6322 24.0833 10.3337C24.0833 8.03512 23.2054 5.83071 21.6426 4.2054C20.0798 2.58008 17.9601 1.66699 15.75 1.66699C13.5399 1.66699 11.4202 2.58008 9.85744 4.2054C8.29464 5.83071 7.41666 8.03512 7.41666 10.3337C7.41666 12.6322 8.29464 14.8366 9.85744 16.4619C11.4202 18.0872 13.5399 19.0003 15.75 19.0003V19.0003Z" stroke="black" stroke-width="1.5" stroke-linecap="round" stroke-linejoin="round"/>
</svg>
